<svg id="Capa_1" enable-background="new 0 0 491.508 491.508" height="512" viewBox="0 0 491.508 491.508" width="512" xmlns="http://www.w3.org/2000/svg"><path d="m245.508 442.874-2.05-5.272-23.95-164.778-73-139h-122l-24 26 .084.07h-.574c.16 3.12 1.33 6.17 3.43 8.63l235.19 275.98c1.61 1.9 4.61 3.13 6.87 3.32l.54-3.74z" fill="#01d0fb"/><g id="XMLID_422_"><g><g id="XMLID_423_"><g><path d="m491.508 159.824-21-28h-157l-69 292 1 24c1.81-.41 5.56-1.78 6.87-3.32l235.37-275.98c2.064-2.418 3.224-5.406 3.415-8.47z" fill="#dff6fd"/><path d="m135.488 159.894h221.04l-111.02 287.93z" fill="#99e6fc"/><path d="m489.998 153.384c.91 2.09 1.3 4.32 1.18 6.51h-134.65l81-111.24 3.12-3.87c1.73.94 3.14 2.45 3.96 4.33z" fill="#f2fbff"/><path d="m440.648 44.784-3.12 3.87-81 111.24-77.47-115.21v-1h157.27c1.54 0 3.02.39 4.32 1.1z" fill="#dff6fd"/><path d="m279.058 43.684v1l77.47 115.21h-221.04l77.47-115.21v-1z" fill="#c8effe"/><path d="m212.958 44.684-77.47 115.21-81-111.24-3.07-4.28c1.07-.45 2.24-.69 3.45-.69h158.09z" fill="#99e6fc"/><path d="m54.488 48.654 81 111.24h-135.47c-.11-2.19.27-4.42 1.18-6.51l45.39-104.27c.96-2.19 2.71-3.86 4.83-4.74z" fill="#62dbfb"/></g></g></g></g><g fill="#fedf30"><path d="m103.712 393.242v41.69c0 2.95-2.481 5.295-5.427 5.142-22.624-1.171-37.075-10.155-43.351-26.95-.935-2.502.24-5.307 2.66-6.437l38.8-18.107c3.409-1.59 7.318.899 7.318 4.662z"/><path d="m79.184 343.453-39.195 14.206c-2.773 1.005-5.823-.529-6.684-3.35-6.608-21.669-3.086-38.316 10.565-49.94 2.034-1.732 5.071-1.583 6.958.307l30.244 30.308c2.658 2.664 1.65 7.187-1.888 8.469z"/><path d="m386.305 393.242v41.69c0 2.95 2.481 5.295 5.427 5.142 22.624-1.171 37.075-10.155 43.351-26.95.935-2.502-.24-5.307-2.66-6.437l-38.8-18.107c-3.409-1.59-7.318.899-7.318 4.662z"/><path d="m410.833 343.453 39.195 14.206c2.773 1.005 5.823-.529 6.684-3.35 6.608-21.669 3.086-38.316-10.565-49.94-2.034-1.732-5.071-1.583-6.958.307l-30.244 30.308c-2.658 2.664-1.65 7.187 1.888 8.469z"/></g></svg>