<svg id="Capa_1" enable-background="new 0 0 496.466 496.466" height="512" viewBox="0 0 496.466 496.466" width="512" xmlns="http://www.w3.org/2000/svg"><g><ellipse cx="209.3" cy="272.889" fill="#e17983" rx="209.3" ry="194.461"/><g><path d="m183.95 333.681c0 52.837 24.772 100.008 63.315 130.483 97.463-16.598 171.333-95.925 171.333-191.275 0-37.03-11.131-71.633-30.468-101.093-12.181-2.852-24.884-4.373-37.923-4.373-91.673 0-166.257 74.583-166.257 166.258z" fill="#da606c"/><circle cx="350.208" cy="333.681" fill="#e79098" r="146.258"/><path d="m256.054 333.682c0-71.884 51.86-131.654 120.206-143.942-8.454-1.52-17.16-2.315-26.052-2.315-80.776 0-146.258 65.482-146.258 146.258s65.482 146.258 146.258 146.258c8.892 0 17.598-.795 26.052-2.315-68.346-12.291-120.206-72.06-120.206-143.944z" fill="#e17983"/><ellipse cx="350.208" cy="333.681" fill="#da606c" rx="112.735" ry="112.735" transform="matrix(.707 -.707 .707 .707 -133.375 345.368)"/><path d="m292.883 430.715c-22.912-25.819-36.828-59.8-36.828-97.034 0-37.235 13.917-71.217 36.83-97.036-33.142 19.654-55.411 55.79-55.411 97.035-.001 41.246 22.268 77.381 55.409 97.035z" fill="#d44954"/><path d="m283.3 90.943-4.241 5.488-108.833 13.043c22.769-13.677 48.577-23.363 76.278-27.98-12.074-2.013-24.507-3.065-37.205-3.065-115.592 0-209.299 87.063-209.299 194.46s93.707 194.461 209.3 194.461c12.698 0 25.131-1.052 37.205-3.065-97.844-16.31-172.095-95.795-172.095-191.396 0-33.627 9.194-65.257 25.364-92.848 1.56-2.661 5.292-2.773 7.064-.249.014.019.027.039.041.058 4.757 6.736 12.521 10.758 20.77 10.758 4.701 0 9.304-1.304 13.308-3.767l17.012-10.46c14.532-8.935 31.008-13.787 47.644-14.031 1.213-.018 2.427-.026 3.641-.026 2.545 0 5.128.039 7.688.118l.831.024c14.005.477 27.718 4.607 39.657 11.947l20.207 12.424c4.009 2.467 8.612 3.771 13.315 3.771 8.25 0 16.015-4.023 20.762-10.75 5.366-7.593 6.161-17.501 2.076-25.854-1.302-2.664-2.698-5.264-4.186-7.796 10.258 2.093 20.34 5.083 30.186 8.959l17.062 6.718c2.83 1.114 5.787 1.679 8.792 1.679h.004c4.966 0 9.667-1.542 13.559-4.256-23.851-30.74-57.142-54.745-95.907-68.365z" fill="#da606c"/><path d="m295.382 168.314c-1.649 2.335-4.829 2.987-7.265 1.49l-20.214-12.428c-14.914-9.17-31.955-14.303-49.452-14.898l-.906-.028c-4.074-.125-8.15-.158-12.225-.098-20.446.301-40.407 6.282-57.826 16.992l-17.012 10.46c-2.435 1.497-5.615.845-7.265-1.49-1.146-1.623-1.312-3.743-.439-5.528 5.874-12.018 14.253-22.658 24.588-31.196l8.89-7.344c.557-.46.258-1.365-.463-1.403-28.761-1.514-57.511 3.163-84.31 13.714l-17.063 6.718c-3.884 1.529-7.091-3.387-4.104-6.302 36.153-35.277 86.031-58.506 141.777-62.501 2.017-.145 3.589-1.803 3.589-3.825v-33.894c0-.626-.153-1.242-.446-1.795l-6.775-12.8c-1.352-2.555.5-5.631 3.391-5.631h34.251c2.828 0 4.684 2.956 3.455 5.503l-6.26 12.981c-.251.52-.381 1.089-.381 1.666v33.97c0 2.022 1.572 3.681 3.589 3.825 55.747 3.996 105.624 27.224 141.777 62.501 2.987 2.915-.22 7.831-4.104 6.302l-17.063-6.718c-26.798-10.551-55.549-15.228-84.31-13.714-.722.038-1.02.943-.463 1.403l8.89 7.344c10.335 8.538 18.714 19.178 24.588 31.196.873 1.785.707 3.905-.439 5.528z" fill="#94cf6f"/><g id="XMLID_255_"><g><g fill="#fbe372"><path d="m403.57 270.528c-2.51-2.12-6.3-1.66-8.22 1l-11.02 15.16c-1.72 2.38-1.31 5.65.89 7.6 4.06 3.61 7.55 7.83 10.35 12.53l5.844 2.795 19.947-10.338v-7.748c-4.731-7.959-10.761-15.049-17.791-20.999z"/><path d="m432.41 324.298-4.332-6.373-22.593 2.86-2.885 6.914c.23 1.96.34 3.96.34 5.98 0 5.56-.87 10.93-2.48 15.96l3.738 7.752 16.444 6.864 8.418-5.536c2.52-7.9 3.88-16.31 3.88-25.04 0-3.171-.18-6.301-.53-9.381z"/><path d="m396.386 366.381-6.877 2.407c-4.9 5.49-10.95 9.95-17.75 13.02l-4.64 7.175 5.414 20.195h11.496c10.68-4.8 20.17-11.81 27.87-20.44v-7.54z"/><path d="m356.805 389.906-6.595-3.497c-.72 0-1.44-.01-2.17-.04-6.86-.28-13.41-1.89-19.38-4.59l-7.518 4.424-9.24 13.854 4.488 9.132c10.33 4.64 21.78 7.23 33.82 7.23l7.281-3.469z"/><path d="m310.93 368.768c-4.91-5.48-8.7-11.97-10.98-19.12l-4.405-5.383-22.1 5.373-2.095 9.08c3.57 11.23 9.48 21.43 17.16 30.02l6.961 1.877 16.431-15.104z"/><path d="m291.14 286.356-12.08 5.172c-5.85 9.8-9.71 20.91-11.06 32.77h.01l5.995 8.198 14.505 1.185 9.3-5.983h.01c.85-7.56 3.31-14.63 7.03-20.88v-10.375z"/></g><path d="m432.41 324.298-29.8 3.4h-.01c-.86-7.56-3.32-14.64-7.03-20.88l25.79-15.29c5.84 9.8 9.71 20.91 11.05 32.77z" fill="#fbe88c"/><path d="m429.06 358.718c-3.57 11.23-9.48 21.43-17.16 30.02l-22.39-19.95c4.91-5.48 8.68-11.98 10.95-19.15z" fill="#fbe88c"/><path d="m384.03 409.178v.01c-10.33 4.64-21.78 7.23-33.82 7.23v-30.01c7.67 0 14.97-1.65 21.55-4.6z" fill="#fbe88c"/><path d="m328.66 381.778-12.27 27.41c-10.69-4.81-20.17-11.82-27.88-20.45l22.42-19.97c4.9 5.49 10.94 9.95 17.73 13.01z" fill="#fbe88c"/><path d="m299.95 349.648-28.6 9.07c-2.52-7.9-3.88-16.31-3.88-25.04 0-3.17.18-6.3.53-9.38h.01l29.8 3.4h.01c-.36 3.07-.44 6.22-.24 9.43.28 4.33 1.09 8.53 2.37 12.52z" fill="#fbe88c"/><path d="m316.08 286.688c1.73 2.38 1.31 5.65-.88 7.6-4.06 3.61-7.56 7.84-10.35 12.53l-25.79-15.29c4.73-7.96 10.76-15.05 17.79-21 2.51-2.12 6.29-1.66 8.22 1z" fill="#fbe88c"/></g></g></g></g></svg>